PathFileType	4	(X/Y/Z)	D:\TRACE\spotREDO_2-26-24\spot_justBody_Motion_3_2-platform.trc
DataRate	CameraRate	NumFrames	NumMarkers	Units	OrigDataRate	OrigDataStartFrame	OrigNumFrames
100.00	100.00	      48	5	mm	100.00	4376	      7000
Frame#	Time	Left_Front			Right_Front			Left_Aft			Right_Aft			Post			
		X1	Y1	Z1	X2	Y2	Z2	X3	Y3	Z3	X4	Y4	Z4	X5	Y5	Z5	

4376	43.750	-689.78687	19.78339	-569.17572	725.08118	25.78724	-484.44012	-761.00415	-20.62358	649.09540	809.28821	-13.03217	652.92261	19.32685	663.05402	-949.83533	
4377	43.760	-689.55933	19.62369	-569.16510	725.30273	25.75839	-484.46750	-760.64642	-20.75916	649.09009	809.43359	-12.99088	652.85388	19.48315	662.95831	-949.87024	
4378	43.770	-689.26959	19.62651	-569.13678	725.51849	25.73787	-484.49295	-760.50415	-20.63521	649.06818	809.55731	-12.91197	652.85242	19.71354	662.80768	-950.02081	
4379	43.780	-689.08887	19.57642	-569.15082	725.70801	25.66145	-484.54672	-760.20752	-20.47821	649.11853	809.86530	-12.73449	652.75952	19.91507	662.78137	-950.21021	
4380	43.790	-688.89148	19.46926	-569.12909	725.82306	25.59843	-484.51718	-760.07153	-20.27655	649.06970	810.13800	-12.63478	652.66595	20.19398	662.71460	-950.36902	
4381	43.800	-688.67719	19.41671	-569.10028	726.19824	25.48286	-484.40106	-759.91669	-20.54680	649.01123	810.33533	-12.60781	652.65668	20.33152	662.61438	-950.47479	
4382	43.810	-688.53394	19.42479	-569.06433	726.34625	25.44486	-484.41428	-759.72491	-20.49859	648.98969	810.52252	-12.67359	652.60541	20.56334	662.54114	-950.83704	
4383	43.820	-688.36218	19.40643	-569.07208	726.63971	25.27268	-484.43634	-759.50250	-20.46373	648.94702	810.67395	-12.73713	652.54242	20.82594	662.49304	-951.15002	
4384	43.830	-688.19806	19.43930	-569.13733	726.72528	25.16642	-484.47037	-759.31696	-20.52703	648.96594	810.83215	-12.73207	652.54175	20.88046	662.47870	-951.25562	
4385	43.840	-688.13019	19.47461	-569.20270	726.88391	25.17030	-484.50131	-759.17499	-20.43309	648.96783	811.00830	-12.64761	652.52679	20.95162	662.51294	-951.35864	
4386	43.850	-688.05029	19.48343	-569.19067	726.99188	25.17293	-484.55276	-759.01105	-20.41457	649.01306	811.16980	-12.60701	652.57544	21.03003	662.50183	-951.25995	
4387	43.860	-687.91150	19.50807	-569.23138	727.11768	25.18973	-484.51419	-758.92310	-20.39179	649.00537	811.26013	-12.57739	652.62268	21.19210	662.45233	-951.13379	
4388	43.870	-687.82330	19.55461	-569.22943	727.20862	25.20722	-484.53680	-758.79163	-20.43878	649.01349	811.42914	-12.61750	652.63531	21.29886	662.52087	-950.82733	
4389	43.880	-687.64288	19.52746	-569.21582	727.25128	25.18298	-484.62329	-758.66827	-20.44921	649.00085	811.62860	-12.63783	652.64423	21.58606	662.51111	-950.52527	
4390	43.890	-687.49939	19.58555	-569.19727	727.33655	25.23037	-484.62866	-758.58069	-20.36311	649.00409	811.86145	-12.60239	652.69061	21.76172	662.51855	-950.38422	
4391	43.900	-687.36993	19.56356	-569.19904	727.46887	25.20875	-484.62469	-758.30896	-20.41999	648.95081	811.95526	-12.63568	652.70044	21.77044	662.55066	-950.18933	
4392	43.910	-687.22009	19.54763	-569.13287	727.52057	25.25041	-484.62872	-758.19977	-20.37412	648.95752	812.06073	-12.61992	652.68304	21.91182	662.54510	-950.11194	
4393	43.920	-687.13361	19.54596	-569.15326	727.49481	25.39927	-484.72855	-758.09406	-20.40979	648.97424	812.04333	-12.68305	652.71600	22.01874	662.55182	-950.16669	
4394	43.930	-687.11035	19.55525	-569.13831	727.49426	25.38838	-484.74564	-758.00586	-20.48931	649.01385	812.17523	-12.97774	652.45270	21.96157	662.58514	-950.36981	
4395	43.940	-686.99091	19.59949	-569.12744	727.72192	25.22961	-484.62375	-757.96942	-20.44460	648.98456	812.13977	-12.70384	652.69489	22.31881	662.54120	-950.44421	
4396	43.950	-686.90637	19.60862	-569.11169	727.64264	25.37885	-484.71048	-757.75977	-20.41009	649.02399	812.17523	-12.77355	652.73553	22.39821	662.55298	-950.69257	
4397	43.960	-686.71576	19.67355	-569.10583	727.97034	25.31889	-484.51050	-757.64557	-20.48282	649.02924	812.35992	-12.83810	652.75647	22.54920	662.66650	-950.99310	
4398	43.970	-686.69324	19.71445	-569.07483	728.05835	25.35618	-484.49963	-757.58557	-20.53539	649.08136	812.48004	-12.89696	652.79883	22.72917	662.74426	-951.08234	
4399	43.980	-686.64856	19.77641	-569.03601	728.06396	25.45642	-484.47815	-757.49780	-20.50215	649.12219	812.47626	-12.96488	652.87634	22.71138	662.87244	-951.09052	
4400	43.990	-686.70184	19.85742	-569.06641	728.18683	25.59888	-484.40771	-757.47577	-20.57194	649.17712	812.48370	-13.07211	652.89447	22.76864	663.10986	-950.87079	
4401	44.000	-686.66003	19.91492	-569.02972	728.10345	25.71730	-484.37173	-757.61707	-20.75936	649.17615	812.42426	-13.16483	652.94562	22.57504	663.39508	-950.55548	
4402	44.010	-686.68787	20.02664	-568.95496	728.16943	25.83027	-484.40692	-757.55310	-20.86824	649.14819	812.39825	-13.33659	652.98383	22.42402	663.60370	-950.22852	
4403	44.020	-686.68982	20.18846	-568.94110	728.20978	25.87848	-484.32962	-757.58588	-20.90511	649.16290	812.50812	-13.44209	653.03156	22.20658	663.79602	-949.90594	
4404	44.030	-686.69916	20.26530	-568.95947	728.19812	26.00748	-484.32364	-757.52802	-21.04065	649.21417	812.42719	-13.62326	652.99463	22.25412	663.97180	-949.21326	
4405	44.040	-686.73242	20.39004	-568.89069	728.04645	26.33815	-484.38531	-757.68616	-21.37307	649.11932	812.32263	-13.80672	653.06732	22.48044	664.17316	-948.79785	
4406	44.050	-686.59009	20.48373	-568.95538	728.01410	26.44309	-484.38455	-757.68262	-21.45465	649.13568	812.30389	-13.91321	653.09741	22.53006	664.31769	-948.69342	
4407	44.060	-686.67456	20.80751	-568.96234	728.02124	26.54084	-484.33020	-757.50488	-21.47284	649.26752	812.36926	-14.01483	653.15338	22.45388	664.49432	-948.61475	
4408	44.070	-686.80347	20.98043	-568.89838	728.05115	26.56995	-484.29828	-757.74677	-21.75373	649.23767	812.44696	-14.35228	652.91583	22.44357	664.69128	-948.52271	
4409	44.080	-686.82257	21.12529	-568.90088	728.04486	26.63062	-484.25647	-757.81726	-21.91282	649.23444	812.46539	-14.22298	653.17877	22.50582	664.81732	-948.57526	
4410	44.090	-686.84155	21.29655	-568.82898	728.05908	26.72345	-484.17447	-757.82617	-22.04428	649.29761	812.51624	-14.38358	653.15222	22.51367	664.99768	-948.60077	
4411	44.100	-686.80786	21.38169	-568.74182	728.10510	26.85360	-483.99515	-757.86829	-22.24352	649.32690	812.47235	-14.55386	653.15521	22.40351	665.29956	-948.64441	
4412	44.110	-687.04950	21.69180	-568.60455	727.93335	27.01274	-483.96133	-757.85065	-22.50230	649.41516	812.38977	-14.77938	653.16504	22.35992	665.71472	-948.67664	
4413	44.120	-687.21674	21.87982	-568.54419	727.92047	27.17040	-483.78748	-757.90039	-22.67667	649.48236	812.16486	-14.98759	653.26459	22.23423	666.08154	-948.47528	
4414	44.130	-687.35468	21.98117	-568.43878	727.78693	27.28751	-483.81738	-758.04858	-22.96577	649.51331	811.95789	-15.00314	653.31622	21.87521	666.33844	-948.15833	
4415	44.140	-687.50629	22.20017	-568.30341	727.68951	27.28759	-483.67007	-758.16492	-22.63937	649.67633	811.80353	-15.22002	653.36890	21.78638	666.53979	-947.80634	
4416	44.150	-687.63776	22.30334	-568.23010	727.44342	27.54910	-483.68076	-758.44843	-23.07755	649.78717	811.61853	-15.72794	653.18152	21.54800	666.85754	-947.23285	
4417	44.160	-687.71985	22.47359	-568.20038	727.24152	27.75520	-483.64197	-758.82556	-23.60510	649.77679	811.43500	-16.06845	653.22791	21.73557	667.10291	-946.71240	
4418	44.170	-687.78925	22.48791	-568.15887	727.10620	27.97646	-483.62714	-759.09521	-23.72626	649.85095	811.25726	-16.38070	653.23474	21.57346	667.53033	-945.91290	
4419	44.180	-688.03778	22.72982	-568.20239	726.96906	28.16302	-483.61960	-759.14368	-23.88366	649.89764	811.25415	-16.52786	653.22394	20.96717	668.06671	-945.40656	
4420	44.190	-688.37305	23.17052	-568.09930	726.74390	28.38435	-483.50748	-759.20911	-23.92237	649.95868	811.09503	-16.59047	653.21863	20.81940	668.44690	-945.14911	
4421	44.200	-688.61444	23.47537	-568.07837	726.61792	28.45526	-483.36755	-759.31158	-23.93527	650.01929	810.79675	-16.87911	653.24408	20.84850	668.64221	-944.94379	
4422	44.210	-688.67035	23.63704	-568.03320	726.48639	28.64820	-483.39938	-759.55243	-24.25869	650.03082	810.64349	-17.27225	653.23090	20.85450	669.00793	-944.80731	
4423	44.220	-688.78546	23.85849	-567.94305	726.18365	28.97765	-483.51633	-759.72119	-24.52063	650.06512	810.45251	-17.51249	653.27563	20.69709	669.34039	-944.70734	
